<svg width="19" height="21" viewBox="0 0 19 21" fill="none" xmlns="http://www.w3.org/2000/svg">
<g clip-path="url(#clip0_4_31)">
<path d="M17.9065 11.4269L11.3743 17.9894C11.1212 18.2478 10.7864 18.375 10.4516 18.375C10.1168 18.375 9.78287 18.2468 9.52811 17.9905C9.01778 17.4778 9.01778 16.6472 9.52811 16.1345L13.8321 11.8125H1.30645C0.585041 11.8125 6.10352e-05 11.226 6.10352e-05 10.5C6.10352e-05 9.77401 0.585041 9.18749 1.30645 9.18749H13.8321L9.52893 4.86444C9.01859 4.35175 9.01859 3.52118 9.52893 3.00848C10.0393 2.49579 10.866 2.49579 11.3763 3.00848L17.9086 9.57098C18.4169 10.0857 18.4169 10.9142 17.9065 11.4269Z" fill="#0075FF"/>
</g>
<defs>
<clipPath id="clip0_4_31">
<rect width="18.2903" height="21" fill="white"/>
</clipPath>
</defs>
</svg>
