<svg width="20" height="27" viewBox="0 0 20 27" fill="none" xmlns="http://www.w3.org/2000/svg">
<g clip-path="url(#clip0_4_37)">
<path d="M15.8333 0H4.16668C2.32553 0 0.833344 1.49219 0.833344 3.33333V23.3333C0.833344 25.1745 2.32553 26.6667 4.16668 26.6667H15.8333C17.6745 26.6667 19.1667 25.1745 19.1667 23.3333V3.33333C19.1667 1.49219 17.6719 0 15.8333 0ZM10 25C9.07553 25 8.33334 24.2578 8.33334 23.3333C8.33334 22.4089 9.07553 21.6667 10 21.6667C10.9245 21.6667 11.6667 22.4089 11.6667 23.3333C11.6667 24.2578 10.9271 25 10 25ZM15.8333 3.33333V20H4.16668V3.33333H15.8333Z" fill="#0075FF"/>
</g>
<defs>
<clipPath id="clip0_4_37">
<rect width="20" height="26.6667" fill="white"/>
</clipPath>
</defs>
</svg>
