<svg width="20" height="23" viewBox="0 0 20 23" fill="none" xmlns="http://www.w3.org/2000/svg">
<path d="M6.78571 2.85714H13.2143V1.07143C13.2143 0.479911 13.692 0 14.2857 0C14.8795 0 15.3571 0.479911 15.3571 1.07143V2.85714H17.1429C18.7188 2.85714 20 4.13616 20 5.71429V20C20 21.5759 18.7188 22.8571 17.1429 22.8571H2.85714C1.27902 22.8571 0 21.5759 0 20V5.71429C0 4.13616 1.27902 2.85714 2.85714 2.85714H4.64286V1.07143C4.64286 0.479911 5.12054 0 5.71429 0C6.30804 0 6.78571 0.479911 6.78571 1.07143V2.85714ZM2.14286 20C2.14286 20.3929 2.4625 20.7143 2.85714 20.7143H17.1429C17.5357 20.7143 17.8571 20.3929 17.8571 20V8.57143H2.14286V20Z" fill="#0075FF"/>
</svg>
