<svg width="20" height="18" viewBox="0 0 20 18" fill="none" xmlns="http://www.w3.org/2000/svg">
<path d="M2.5 14.625C2.5 14.9688 2.77969 15.25 3.125 15.25H18.75C19.4414 15.25 20 15.8086 20 16.5C20 17.1914 19.4414 17.75 18.75 17.75H3.125C1.39922 17.75 0 16.3516 0 14.625V1.5C0 0.809766 0.559766 0.25 1.25 0.25C1.94023 0.25 2.5 0.809766 2.5 1.5V14.625ZM13.3828 9.88281C12.8945 10.3711 12.1055 10.3711 11.6172 9.88281L9.375 7.64453L5.88281 11.1328C5.39453 11.6211 4.60547 11.6211 4.11719 11.1328C3.62812 10.6445 3.62812 9.85547 4.11719 9.36719L8.49219 4.99219C8.98047 4.50391 9.76953 4.50391 10.2578 4.99219L12.5 7.23047L16.6172 3.11719C17.1055 2.62812 17.8945 2.62812 18.3828 3.11719C18.8711 3.60547 18.8711 4.39453 18.3828 4.88281L13.3828 9.88281Z" fill="#0075FF"/>
</svg>
